<?xml version="1.0" standalone="no"?>
<!DOCTYPE svg PUBLIC "-//W3C//DTD SVG 20010904//EN"
 "http://www.w3.org/TR/2001/REC-SVG-20010904/DTD/svg10.dtd">
<svg version="1.0" xmlns="http://www.w3.org/2000/svg"
 width="512.000000pt" height="512.000000pt" viewBox="0 0 512.000000 512.000000"
 preserveAspectRatio="xMidYMid meet">
<metadata>
Created by potrace 1.11, written by Peter Selinger 2001-2013
</metadata>
<g transform="translate(0.000000,512.000000) scale(0.100000,-0.100000)"
fill="#000000" stroke="none">
<path d="M1875 5073 c-435 -90 -800 -237 -1100 -444 -82 -56 -107 -92 -107
-155 0 -59 30 -103 100 -145 l54 -33 -63 -55 c-86 -73 -221 -212 -291 -297
-183 -224 -343 -547 -404 -814 -50 -219 -63 -349 -59 -590 2 -113 6 -223 9
-245 3 -22 8 -60 11 -85 23 -175 69 -364 97 -397 17 -21 66 -44 100 -49 44 -5
104 23 143 69 19 22 36 39 38 36 2 -2 20 -51 41 -109 34 -93 145 -332 194
-416 110 -190 297 -428 477 -609 118 -118 160 -157 290 -266 22 -19 42 -36 45
-39 23 -23 97 -74 123 -85 41 -17 103 -11 136 13 48 36 65 69 65 127 -1 49 0
53 17 45 9 -6 23 -16 31 -23 30 -29 230 -179 333 -249 209 -141 350 -218 403
-218 38 0 94 24 195 84 156 92 324 209 494 343 51 40 95 73 98 73 3 0 4 -17 0
-37 -15 -97 76 -185 174 -167 34 7 108 57 192 128 19 17 62 53 95 81 96 80
324 315 410 422 211 262 360 518 459 793 21 58 39 106 41 108 1 2 25 -20 52
-47 28 -28 59 -51 69 -52 10 -1 30 -2 45 -3 42 -4 102 28 125 65 32 53 79 284
102 504 12 110 6 475 -8 560 -7 39 -14 84 -17 100 -77 466 -341 920 -728 1251
l-59 50 55 33 c62 38 94 80 101 133 8 61 -23 109 -106 165 -268 183 -585 323
-932 409 -314 79 -556 45 -803 -113 l-54 -34 -51 34 c-95 63 -193 105 -307
133 -61 15 -280 27 -325 17z m265 -311 c104 -28 203 -83 299 -165 90 -77 152
-76 246 5 77 65 123 94 206 128 112 46 256 60 368 36 159 -35 411 -117 533
-174 141 -66 218 -105 218 -112 0 -4 -22 -21 -49 -38 -60 -37 -82 -68 -88
-126 -8 -69 21 -109 132 -184 375 -252 640 -619 751 -1041 13 -53 27 -114 30
-136 3 -22 7 -46 10 -54 18 -55 26 -433 12 -556 -4 -33 -7 -68 -8 -77 0 -12
-12 -4 -41 27 -42 46 -79 61 -138 57 -72 -6 -122 -61 -136 -152 -4 -25 -21
-97 -37 -160 -102 -393 -326 -765 -665 -1106 l-42 -42 5 53 c10 88 -42 158
-128 172 -47 7 -97 -16 -162 -77 -33 -31 -81 -74 -106 -96 -24 -21 -54 -47
-65 -58 -154 -141 -504 -399 -678 -500 l-47 -28 -73 43 c-217 129 -529 368
-763 586 -100 92 -161 133 -200 133 -104 0 -180 -110 -143 -207 l10 -28 -27
25 c-15 14 -55 54 -88 89 -34 36 -70 74 -81 86 -116 122 -281 368 -375 560
-56 115 -130 305 -145 375 -2 8 -13 60 -25 115 -25 119 -51 175 -88 198 -70
41 -140 28 -201 -38 -22 -24 -41 -41 -41 -37 0 4 -4 39 -8 77 -15 146 -8 458
14 582 64 369 217 675 471 947 81 87 212 197 319 269 102 68 134 110 134 173
0 53 -31 99 -90 136 -28 17 -50 34 -50 38 0 9 210 111 310 150 47 18 94 36
105 41 60 24 283 85 345 95 19 3 37 8 39 10 7 7 195 -4 231 -14z"/>
<path d="M1931 4148 c-124 -19 -264 -79 -368 -159 l-51 -40 -54 18 c-81 28
-265 25 -338 -5 -104 -41 -187 -131 -220 -236 -19 -59 -15 -171 9 -246 23 -74
77 -166 136 -235 22 -25 40 -49 40 -53 0 -4 -7 -47 -14 -96 -17 -113 -9 -276
19 -382 56 -212 195 -404 366 -504 l59 -34 -3 -243 c-3 -192 0 -259 12 -319
73 -353 384 -608 736 -604 52 1 104 2 115 4 57 8 114 20 148 32 27 10 45 11
65 3 105 -40 307 -52 423 -25 254 59 463 237 549 470 43 115 49 169 48 427 -1
247 3 279 34 279 36 0 208 156 267 243 88 130 142 307 147 482 2 98 -7 211
-21 256 -3 9 12 34 35 60 95 103 160 250 162 364 4 233 -160 386 -412 384 -41
0 -106 -9 -145 -19 l-70 -18 -35 26 c-73 56 -119 84 -196 116 -256 107 -528
71 -758 -100 -33 -24 -62 -40 -65 -36 -11 16 -125 89 -188 121 -126 63 -294
90 -432 69z m246 -318 c75 -26 131 -60 216 -132 101 -85 111 -90 167 -90 47 0
78 12 111 44 102 98 239 180 324 195 68 12 170 5 227 -15 68 -24 155 -79 217
-137 49 -46 104 -75 142 -75 11 0 53 14 92 32 93 40 200 50 236 21 54 -44 15
-151 -94 -259 -108 -105 -114 -125 -84 -248 27 -108 33 -261 14 -351 -20 -94
-74 -201 -132 -262 -55 -57 -82 -76 -178 -128 -38 -21 -78 -43 -88 -49 -28
-18 -54 -81 -51 -123 2 -21 7 -145 10 -275 7 -262 1 -324 -44 -418 -50 -103
-190 -218 -287 -236 -16 -3 -32 -7 -37 -10 -18 -11 -213 -2 -226 11 -1 1 56
60 128 131 77 75 139 145 151 170 21 45 21 61 4 404 -3 47 -7 135 -10 195 -3
61 -8 132 -11 158 -5 60 10 119 39 150 12 13 90 58 172 101 83 43 162 89 177
104 96 90 27 252 -106 252 -25 0 -86 -26 -207 -87 -184 -94 -254 -147 -307
-231 -64 -101 -75 -184 -59 -432 8 -124 17 -304 21 -412 l3 -77 -74 -75 -74
-74 -74 75 -74 75 4 71 c2 40 7 136 10 215 3 79 8 178 11 220 2 42 6 104 8
137 10 162 -63 319 -187 404 -85 58 -359 191 -393 191 -133 0 -202 -159 -109
-252 14 -14 90 -58 170 -99 80 -41 156 -83 170 -95 34 -29 54 -81 50 -134 -2
-25 -6 -99 -10 -165 -3 -66 -8 -151 -10 -190 -17 -294 -17 -392 0 -426 9 -19
78 -95 152 -170 l135 -136 -46 -7 c-212 -32 -398 52 -499 225 -52 89 -60 149
-54 414 3 132 7 256 8 275 5 94 -21 137 -108 180 -71 36 -149 86 -189 122 -43
39 -107 139 -127 199 -41 121 -46 296 -11 424 21 80 21 138 -1 172 -10 15 -46
53 -79 84 -103 95 -148 219 -96 261 41 33 136 23 240 -25 93 -42 146 -29 247
62 149 134 320 177 480 121z"/>
</g>
</svg>
